<?xml version="1.0" encoding="utf-8"?>
<!-- Generator: Adobe Illustrator 22.0.1, SVG Export Plug-In . SVG Version: 6.00 Build 0)  -->
<svg version="1.1" id="Capa_1" xmlns="http://www.w3.org/2000/svg" xmlns:xlink="http://www.w3.org/1999/xlink" x="0px" y="0px"
	 viewBox="0 0 1000 306" style="enable-background:new 0 0 1000 306;" xml:space="preserve">
<style type="text/css">
	.st0{fill:#FAB900;}
	.st1{fill:#FDEB08;}
	.st2{fill:#E09A0A;}
	.st3{fill:#F8B700;}
	.st4{fill:#D32500;}
	.st5{fill:#F26739;}
	.st6{fill:#FEDB41;}
	.st7{fill:#FFCC33;}
	.st8{fill:#FEA832;}
	.st9{fill:#FE9923;}
</style>
<g>
	<path class="st0" d="M872,132.4c3.2,0,6.8-0.5,10.5-1.4V29.3h-20.7v101.8C865.4,132,868.9,132.4,872,132.4z"/>
	<path class="st1" d="M903.2,121.4V51h-20.7v78.3C889.5,127.5,897,126,903.2,121.4z"/>
	<path class="st2" d="M912.4,112.2c2.9-4.2,6.9-7.2,11.5-8.5V68.4h-20.7v52.2C906.8,117.9,910,115.7,912.4,112.2z"/>
	<path class="st1" d="M929.6,102.8h11.8c1.1,0,2.1,0.2,3.1,0.5V81.5h-20.7v22.2C925.7,103.1,927.6,102.8,929.6,102.8z"/>
	<path class="st1" d="M861.8,129.3V51h-20.7v70.6C847.4,126.1,854.9,127.6,861.8,129.3z"/>
	<path class="st3" d="M831.7,112.2c2.4,3.6,5.7,5.7,9.4,8.4V68.4h-20.7v35.3C824.9,105.2,828.9,108.1,831.7,112.2z"/>
	<path class="st1" d="M802.6,102.8h11.8c2.1,0,4.1,0.4,6,1V81.5h-20.7v21.7C800.7,102.9,801.6,102.8,802.6,102.8z"/>
	<path class="st4" d="M929.6,100.6c-6.8,0-13.2,3.4-17.1,9.3c-8.5,12.7-27.9,20.4-40.5,20.4s-31.9-7.7-40.4-20.4
		c-3.9-5.8-10.3-9.3-17.1-9.3h-11.8c-6.9,0-11,6.3-11,13.6v0.8c-0.1,42.6,6.6,84.9,20,125.1l0.9,2.8c1.9,5.7,8.1,10.4,13.9,10.4
		h91.3c7.3,0,13.6-5.6,14.8-13.2l0,0c13.5-40.2,20.2-82.6,20-125.2l0-0.7c0-7.3-4.1-13.6-11-13.6H929.6z"/>
	<path class="st5" d="M941.4,124.1h-11.8c-6.8,0-13.2,3.4-17.1,9.3c-8.5,12.7-27.9,20.4-40.5,20.4c-12.5,0-31.9-7.7-40.4-20.4
		c-3.9-5.8-10.3-9.3-17.1-9.3h-11.8c-5.6,0-9.3,4.2-10.5,9.8c1.6,36.2,8.2,72,19.5,106.2c0,0,35.8-8.6,60.6-8.6
		c24.7,0,60.1,9.5,60.3,8.6c11.5-34.2,18-69.9,19.6-106C950.9,128.4,947.1,124.1,941.4,124.1z"/>
</g>
<path class="st6" d="M872.2,157.3c-20.5,0-37.4,15.9-37.4,35.4s16.9,35.7,37.4,35.7s37.1-16.1,37.1-35.7S892.7,157.3,872.2,157.3z"
	/>
<path class="st7" d="M909.3,192.7c0,19.5-16.6,35.7-37.1,35.7v-71C892.7,157.3,909.3,173.2,909.3,192.7z"/>
<path class="st8" d="M872.2,165.6c-15.6,0-28.7,12.2-28.7,27.1c0,14.9,13,27.3,28.7,27.3s28.4-12.4,28.4-27.3
	C900.6,177.8,887.8,165.6,872.2,165.6z"/>
<path class="st9" d="M900.6,192.7c0,14.9-12.8,27.3-28.4,27.3v-54.4C887.8,165.6,900.6,177.8,900.6,192.7z"/>
<path class="st6" d="M876.5,190.6h-2.2v-8.3h2.2c1.2,0,2.2,0.9,2.2,2.1c0,2.7,4.4,2.7,4.4,0c0-3.5-2.9-6.2-6.6-6.2h-2.2v-2.1
	c0-1.4-1.1-2.1-2.2-2.1c-1.1,0-2.2,0.7-2.2,2.1v2.1h-2.5c-3.6,0-6.6,2.8-6.6,6.2v4.2c0,3.5,2.9,6.2,6.6,6.2h2.5v8.6h-2.5
	c-1.2,0-2.2-0.9-2.2-2.1c0-2.7-4.4-2.7-4.4,0c0,3.5,2.9,6.2,6.6,6.2h2.5v2.1c0,1.4,1.1,2.1,2.2,2.1c1.1,0,2.2-0.7,2.2-2.1v-2.1h2.2
	c3.6,0,6.6-2.8,6.6-6.2v-4.4C883.1,193.4,880.2,190.6,876.5,190.6z M870,190.6h-2.5c-1.2,0-2.2-0.9-2.2-2.1v-4.2
	c0-1.2,1-2.1,2.2-2.1h2.5V190.6z M878.7,201.3c0,1.2-1,2.1-2.2,2.1h-2.2v-8.6h2.2c1.2,0,2.2,0.9,2.2,2.1V201.3z"/>
<path class="st7" d="M876.5,190.6h-2.2v-8.3h2.2c1.2,0,2.2,0.9,2.2,2.1c0,2.7,4.4,2.7,4.4,0c0-3.5-2.9-6.2-6.6-6.2h-2.2v-2.1
	c0-1.4-1.1-2.1-2.2-2.1v37.7c1.1,0,2.2-0.7,2.2-2.1v-2.1h2.2c3.6,0,6.6-2.8,6.6-6.2v-4.4C883.1,193.4,880.2,190.6,876.5,190.6z
	 M878.7,201.3c0,1.2-1,2.1-2.2,2.1h-2.2v-8.6h2.2c1.2,0,2.2,0.9,2.2,2.1V201.3z"/>
<g>
	<path d="M377.4,182.3c0.6,0,0.9,0.3,0.9,0.8v6.5c0,0.6-0.3,0.9-0.9,0.9c-4.7,0-8.2-1.6-10.4-4.9v2.4c0,7.7-2,13.3-5.9,16.9
		c-3.9,3.6-9.8,5.4-17.7,5.4l-0.7-6.7c11,0,16.6-5.3,16.6-15.8l-0.1-41.7l7.8-1.3v28.7C367.5,179.4,370.9,182.3,377.4,182.3z
		 M370.1,131.2l-6.7,6.7l-6.8-6.7l6.6-6.6L370.1,131.2z"/>
	<path d="M377.5,190.6c-0.6,0-0.9-0.3-0.9-0.9l0.1-6.5c0-0.6,0.3-0.8,0.9-0.8h7c7.7,0,11.5-3.8,11.5-11.5v-24.7l7.7-1.3V173
		c0,5.6-1.6,10-4.9,13.1c-3.3,3.1-8.1,4.6-14.4,4.6H377.5z M383.4,211.1l-6.7-6.6l6.7-6.6l6.7,6.6L383.4,211.1z M398,211.1l-6.8-6.6
		l6.8-6.6l6.7,6.6L398,211.1z"/>
	<path d="M418,190.6v-66l7.8-1.2v67.2H418z"/>
	<path d="M465.3,182.3c0.6,0,0.9,0.3,0.9,0.8v6.5c0,0.6-0.3,0.9-0.9,0.9c-4.7,0-8.2-1.6-10.4-4.9v2.4c0,7.7-2,13.3-5.9,16.9
		c-3.9,3.6-9.8,5.4-17.7,5.4l-0.7-6.7c11,0,16.6-5.3,16.6-15.8l-0.1-41.7l7.8-1.3v28.7C455.3,179.4,458.8,182.3,465.3,182.3z"/>
	<path d="M490.5,146c5.9,0,10.8,2,14.8,6c4,4,6,9,6,15c0,7.4-2.3,13.1-6.9,17.3c-4.6,4.2-10.9,6.3-18.9,6.3h-20.1
		c-0.6,0-0.9-0.3-0.9-0.9v-6.5c0-0.6,0.3-0.8,0.9-0.8h7.9c-2.8-5.7-4.1-10.7-4.1-14.9c0-6.2,2-11.3,6-15.4
		C479.2,148,484.3,146,490.5,146z M486.2,182.3c5.3,0,9.5-1.3,12.6-4c3.1-2.6,4.7-6.3,4.7-11c0-3.9-1.3-7.2-3.8-9.7
		c-2.5-2.5-5.8-3.8-9.6-3.8c-3.7,0-6.8,1.4-9.4,4.1c-2.6,2.7-3.9,5.9-3.9,9.6c0,4.4,1.5,9.4,4.6,14.8H486.2z M496,131.6l-6.7,6.7
		l-6.8-6.7l6.6-6.6L496,131.6z"/>
	<path d="M565,182.3c0.6,0,0.9,0.3,0.9,0.8v6.5c0,0.6-0.3,0.9-0.9,0.9h-5.4c-1.1,13.2-12.5,19.8-34.2,19.8l-0.9-6.7
		c8.5,0,15.1-1,19.6-3.1c4.5-2.1,7.1-5.4,7.7-9.9h-11c-6.5,0-11.7-2-15.6-5.9c-3.9-4-5.9-9.3-5.9-16c0-6.6,2-11.9,6-16.1
		c4-4.2,9.1-6.3,15.2-6.3c5.7,0,10.3,1.9,13.9,5.7c3.6,3.8,5.3,8.8,5.3,15v15.4H565z M526.5,168.4c0,4.6,1.4,8.1,4.1,10.6
		c2.8,2.5,6.5,3.7,11.1,3.7c2,0,5.3-0.1,10.1-0.2v-14.8c0-4-1.1-7.2-3.4-9.6c-2.2-2.4-5.2-3.6-8.8-3.6c-3.8,0-7,1.3-9.5,3.9
		C527.7,160.8,526.5,164.2,526.5,168.4z"/>
	<path d="M599.6,182.3c0.6,0,0.9,0.3,0.9,0.8v6.5c0,0.6-0.3,0.9-0.9,0.9c-5.7,0-11-2.2-15.8-6.7c-3.3,4.5-9.6,6.7-18.8,6.7
		c-0.6,0-0.9-0.3-0.9-0.9l0.1-6.5c0-0.6,0.3-0.8,0.9-0.8c4.9,0,8.5-0.9,10.7-2.7c2.2-1.8,3.4-4.7,3.4-8.8v-14.9l7.7-1.2V173
		c0,1.5-0.2,3.1-0.5,4.8C590.6,180.8,594.9,182.3,599.6,182.3z M581.9,141.5l-6.7,6.6l-6.7-6.6l6.7-6.6L581.9,141.5z M596.6,141.5
		l-6.7,6.6l-6.8-6.6l6.8-6.6L596.6,141.5z"/>
	<path d="M630.1,182.3c0.6,0,0.9,0.3,0.9,0.8v6.5c0,0.6-0.3,0.9-0.9,0.9c-5.2,0-10.1-2-14.6-6c-3.3,4-8.5,6-15.8,6
		c-0.6,0-0.9-0.3-0.9-0.9l0.1-6.5c0-0.6,0.3-0.8,0.9-0.8c7.7,0,11.6-3.8,11.6-11.5l-0.1-14.9l7.8-1.2V173c0,2.1-0.2,4-0.6,5.5
		C622.2,181.1,626.1,182.3,630.1,182.3z M607.5,204.7l6.6-6.7l6.9,6.7l-6.7,6.6L607.5,204.7z"/>
	<path d="M630.1,190.6c-0.6,0-0.9-0.3-0.9-0.9l0.1-6.5c0-0.6,0.3-0.8,0.9-0.8h7c7.7,0,11.5-3.8,11.5-11.5v-24.7l7.7-1.3V173
		c0,5.6-1.6,10-4.9,13.1c-3.3,3.1-8.1,4.6-14.4,4.6H630.1z M635.9,211.1l-6.7-6.6l6.7-6.6l6.7,6.6L635.9,211.1z M650.6,211.1
		l-6.8-6.6l6.8-6.6l6.7,6.6L650.6,211.1z"/>
	<path d="M694.5,182.3c0.6,0,0.9,0.3,0.9,0.8v6.5c0,0.6-0.3,0.9-0.9,0.9c-4.7,0-8.2-1.6-10.4-4.9v2.4c0,7.7-2,13.3-5.9,16.9
		c-3.9,3.6-9.8,5.4-17.7,5.4l-0.7-6.7c11,0,16.6-5.3,16.6-15.8l-0.1-41.7l7.8-1.3v28.7C684.5,179.4,687.9,182.3,694.5,182.3z"/>
	<path d="M722.3,151.7c6.7,0,12.1,1.7,16.1,5.2c4,3.5,6,8.1,6,14c0,6.1-1.9,10.9-5.7,14.4c-3.8,3.5-8.8,5.3-15.1,5.3h-29.2
		c-0.6,0-0.9-0.3-0.9-0.9v-6.5c0-0.6,0.3-0.8,0.9-0.8h28.5c4.2,0,7.6-1,10-3c2.4-2,3.6-4.8,3.6-8.5c0-3.6-1.2-6.5-3.6-8.6
		c-2.4-2.1-5.7-3.2-9.9-3.2H701l-4.2-7.5l27.5-32.6l7.5,4L706,151.7H722.3z"/>
</g>
</svg>
