<?xml version="1.0" encoding="utf-8"?>
<!-- Generator: Adobe Illustrator 22.0.1, SVG Export Plug-In . SVG Version: 6.00 Build 0)  -->
<svg version="1.1" id="Capa_1" xmlns="http://www.w3.org/2000/svg" xmlns:xlink="http://www.w3.org/1999/xlink" x="0px" y="0px"
	 viewBox="0 0 1000 306" style="enable-background:new 0 0 1000 306;" xml:space="preserve">
<style type="text/css">
	.st0{fill:#FAB900;}
	.st1{fill:#FDEB08;}
	.st2{fill:#E09A0A;}
	.st3{fill:#F8B700;}
	.st4{fill:#D32500;}
	.st5{fill:#F26739;}
	.st6{fill:#FEDB41;}
	.st7{fill:#FFCC33;}
	.st8{fill:#FEA832;}
	.st9{fill:#FE9923;}
</style>
<g>
	<path class="st0" d="M124,132.4c3.2,0,6.8-0.5,10.5-1.4V29.3h-20.7v101.8C117.4,132,120.9,132.4,124,132.4z"/>
	<path class="st1" d="M155.2,121.4V51h-20.7v78.3C141.5,127.5,149,126,155.2,121.4z"/>
	<path class="st2" d="M164.4,112.2c2.9-4.2,6.9-7.2,11.5-8.5V68.4h-20.7v52.2C158.8,117.9,162,115.7,164.4,112.2z"/>
	<path class="st1" d="M181.6,102.8h11.8c1.1,0,2.1,0.2,3.1,0.5V81.5h-20.7v22.2C177.7,103.1,179.6,102.8,181.6,102.8z"/>
	<path class="st1" d="M113.8,129.3V51H93.1v70.6C99.4,126.1,106.9,127.6,113.8,129.3z"/>
	<path class="st3" d="M83.7,112.2c2.4,3.6,5.7,5.7,9.4,8.4V68.4H72.4v35.3C76.9,105.2,80.9,108.1,83.7,112.2z"/>
	<path class="st1" d="M54.6,102.8h11.8c2.1,0,4.1,0.4,6,1V81.5H51.8v21.7C52.7,102.9,53.6,102.8,54.6,102.8z"/>
	<path class="st4" d="M181.6,100.6c-6.8,0-13.2,3.4-17.1,9.3c-8.5,12.7-27.9,20.4-40.5,20.4s-31.9-7.7-40.4-20.4
		c-3.9-5.8-10.3-9.3-17.1-9.3H54.6c-6.9,0-11,6.3-11,13.6v0.8c-0.1,42.6,6.6,84.9,20,125.1l0.9,2.8c1.9,5.7,8.1,10.4,13.9,10.4h91.3
		c7.3,0,13.6-5.6,14.8-13.2l0,0c13.5-40.2,20.2-82.6,20-125.2l0-0.7c0-7.3-4.1-13.6-11-13.6H181.6z"/>
	<path class="st5" d="M193.4,124.1h-11.8c-6.8,0-13.2,3.4-17.1,9.3c-8.5,12.7-27.9,20.4-40.5,20.4s-31.9-7.7-40.4-20.4
		c-3.9-5.8-10.3-9.3-17.1-9.3H54.6c-5.6,0-9.3,4.2-10.5,9.8c1.6,36.2,8.2,72,19.5,106.2c0,0,35.8-8.6,60.6-8.6
		c24.7,0,60.1,9.5,60.3,8.6c11.5-34.2,18-69.9,19.6-106C202.9,128.4,199.1,124.1,193.4,124.1z"/>
</g>
<path class="st6" d="M124.2,157.3c-20.5,0-37.4,15.9-37.4,35.4s16.9,35.7,37.4,35.7s37.1-16.1,37.1-35.7S144.7,157.3,124.2,157.3z"
	/>
<path class="st7" d="M161.3,192.7c0,19.5-16.6,35.7-37.1,35.7v-71C144.7,157.3,161.3,173.2,161.3,192.7z"/>
<path class="st8" d="M124.2,165.6c-15.6,0-28.7,12.2-28.7,27.1c0,14.9,13,27.3,28.7,27.3s28.4-12.4,28.4-27.3
	C152.6,177.8,139.8,165.6,124.2,165.6z"/>
<path class="st9" d="M152.6,192.7c0,14.9-12.8,27.3-28.4,27.3v-54.4C139.8,165.6,152.6,177.8,152.6,192.7z"/>
<path class="st6" d="M128.5,190.6h-2.2v-8.3h2.2c1.2,0,2.2,0.9,2.2,2.1c0,2.7,4.4,2.7,4.4,0c0-3.5-2.9-6.2-6.6-6.2h-2.2v-2.1
	c0-1.4-1.1-2.1-2.2-2.1c-1.1,0-2.2,0.7-2.2,2.1v2.1h-2.5c-3.6,0-6.6,2.8-6.6,6.2v4.2c0,3.5,2.9,6.2,6.6,6.2h2.5v8.6h-2.5
	c-1.2,0-2.2-0.9-2.2-2.1c0-2.7-4.4-2.7-4.4,0c0,3.5,2.9,6.2,6.6,6.2h2.5v2.1c0,1.4,1.1,2.1,2.2,2.1c1.1,0,2.2-0.7,2.2-2.1v-2.1h2.2
	c3.6,0,6.6-2.8,6.6-6.2v-4.4C135.1,193.4,132.2,190.6,128.5,190.6z M122,190.6h-2.5c-1.2,0-2.2-0.9-2.2-2.1v-4.2
	c0-1.2,1-2.1,2.2-2.1h2.5V190.6z M130.7,201.3c0,1.2-1,2.1-2.2,2.1h-2.2v-8.6h2.2c1.2,0,2.2,0.9,2.2,2.1V201.3z"/>
<path class="st7" d="M128.5,190.6h-2.2v-8.3h2.2c1.2,0,2.2,0.9,2.2,2.1c0,2.7,4.4,2.7,4.4,0c0-3.5-2.9-6.2-6.6-6.2h-2.2v-2.1
	c0-1.4-1.1-2.1-2.2-2.1v37.7c1.1,0,2.2-0.7,2.2-2.1v-2.1h2.2c3.6,0,6.6-2.8,6.6-6.2v-4.4C135.1,193.4,132.2,190.6,128.5,190.6z
	 M130.7,201.3c0,1.2-1,2.1-2.2,2.1h-2.2v-8.6h2.2c1.2,0,2.2,0.9,2.2,2.1V201.3z"/>
<g>
	<path d="M298.9,220.9c-5.5,0-10.3-1.2-14.4-3.7c-4.1-2.5-7.3-5.9-9.6-10.3c-2.3-4.4-3.4-9.6-3.4-15.5v-21.8c0-6,1.1-11.2,3.4-15.6
		c2.3-4.4,5.5-7.9,9.6-10.3c4.1-2.5,8.9-3.7,14.4-3.7c4.5,0,8.7,1,12.4,2.9c3.8,2,6.9,4.7,9.4,8.2c2.5,3.5,4.3,7.7,5.2,12.4h-11.3
		c-0.7-2.5-1.8-4.8-3.4-6.7c-1.6-1.9-3.5-3.4-5.6-4.4c-2.2-1.1-4.4-1.6-6.7-1.6c-4.8,0-8.7,1.7-11.6,5.2c-2.9,3.4-4.4,8-4.4,13.6
		v21.8c0,5.6,1.5,10.2,4.4,13.6c2.9,3.4,6.8,5.1,11.6,5.1c3.4,0,6.6-1,9.7-3c3-2,5.1-4.9,6.1-8.6H326c-0.9,4.5-2.6,8.4-5.2,11.8
		c-2.6,3.4-5.7,6-9.4,7.9C307.6,219.9,303.4,220.9,298.9,220.9z"/>
	<path d="M341.6,220v-79.3h11V220H341.6z M346.4,186.5v-10.6h28.9c2.6,0,4.6-1.1,6.2-3.4c1.5-2.3,2.3-5.2,2.3-8.9s-0.8-6.7-2.3-8.9
		c-1.5-2.3-3.6-3.4-6.2-3.4h-28.9v-10.6h28.5c4.1,0,7.8,1,10.8,2.9c3.1,1.9,5.5,4.6,7.2,8c1.7,3.4,2.6,7.4,2.6,12
		c0,4.6-0.9,8.6-2.6,12c-1.7,3.4-4.1,6.1-7.2,8c-3.1,1.9-6.7,2.9-10.8,2.9H346.4z M385.8,220l-18-36l11-2.5l20.1,38.5H385.8z"/>
	<path d="M460.4,140.8l-23.9,47.1V220h-11v-32.2l-23.9-47.1h12.3l17.2,35.8l17.2-35.8H460.4z"/>
	<path d="M468.5,220v-79.3h11V220H468.5z M474.1,189.3v-10.6h25.1c3.6,0,6.5-1.3,8.7-3.8c2.2-2.5,3.3-5.8,3.3-9.9
		c0-4.1-1.1-7.5-3.3-10c-2.2-2.5-5.1-3.8-8.7-3.8h-25.1v-10.6h24.7c4.7,0,8.8,1,12.4,3c3.5,2,6.3,4.9,8.3,8.5
		c2,3.7,2.9,7.9,2.9,12.8c0,4.9-1,9.1-2.9,12.8c-2,3.6-4.7,6.5-8.3,8.5c-3.5,2-7.7,3-12.4,3H474.1z"/>
	<path d="M525.7,151.3v-10.6H581v10.6H525.7z M547.9,220v-72.8h11V220H547.9z"/>
	<path d="M615.6,220.9c-5.5,0-10.4-1.2-14.5-3.6c-4.1-2.4-7.4-5.8-9.6-10.2c-2.3-4.4-3.4-9.5-3.4-15.4v-22.5c0-5.9,1.1-11,3.4-15.4
		c2.3-4.4,5.5-7.8,9.6-10.2c4.1-2.4,9-3.6,14.5-3.6c5.5,0,10.4,1.2,14.5,3.6c4.1,2.4,7.3,5.8,9.6,10.2c2.3,4.4,3.4,9.5,3.4,15.4
		v22.5c0,5.9-1.1,11-3.4,15.4c-2.3,4.4-5.5,7.8-9.6,10.2C626,219.6,621.2,220.9,615.6,220.9z M615.6,209.9c4.9,0,8.9-1.6,11.8-4.9
		s4.5-7.6,4.5-13v-23.2c0-5.4-1.5-9.7-4.5-13c-3-3.3-6.9-4.9-11.8-4.9s-8.9,1.6-11.8,4.9c-3,3.3-4.5,7.6-4.5,13V192
		c0,5.4,1.5,9.7,4.5,13S610.7,209.9,615.6,209.9z"/>
	<path d="M661,220v-79.3h11V220H661z M666.4,151.3v-10.6h44v10.6H666.4z M666.4,186.7v-10.6l38.1-0.1v10.6L666.4,186.7z"/>
	<path d="M722.8,220v-79.3h11V220H722.8z M727.7,186.5v-10.6h28.9c2.6,0,4.6-1.1,6.2-3.4c1.5-2.3,2.3-5.2,2.3-8.9s-0.8-6.7-2.3-8.9
		c-1.5-2.3-3.6-3.4-6.2-3.4h-28.9v-10.6h28.5c4.1,0,7.8,1,10.8,2.9s5.5,4.6,7.2,8c1.7,3.4,2.6,7.4,2.6,12c0,4.6-0.9,8.6-2.6,12
		c-1.7,3.4-4.1,6.1-7.2,8s-6.7,2.9-10.8,2.9H727.7z M767,220l-18-36l11-2.5l20.1,38.5H767z"/>
	<path d="M805.1,140.8V220h-11v-79.3H805.1z"/>
	<path d="M824.5,220v-79.3h11V220H824.5z M829.9,151.3v-10.6H875v10.6H829.9z M829.9,186v-10.6H869V186H829.9z M829.9,220v-10.6H875
		V220H829.9z"/>
	<path d="M914.2,220.9c-5.7,0-10.9-0.8-15.6-2.5c-4.7-1.6-9-4.1-12.8-7.4l6.9-8.5c3,2.6,6.3,4.6,9.9,5.9c3.6,1.3,7.5,2,11.7,2
		c5.7,0,10.1-1.1,13.2-3.2c3.1-2.1,4.7-5.1,4.7-9v-0.1c0-3-0.8-5.3-2.4-6.9c-1.6-1.6-3.7-2.8-6.2-3.6c-2.6-0.8-5.4-1.4-8.4-1.9
		c-2.9-0.5-5.9-1.2-8.9-1.9c-3-0.7-5.8-1.8-8.3-3.2c-2.5-1.5-4.6-3.6-6.1-6.3c-1.5-2.7-2.3-6.4-2.3-11.1v-0.1
		c0-7.4,2.4-13.1,7.3-17.1c4.9-4.1,11.7-6.1,20.6-6.1c4.2,0,8.3,0.7,12.4,2c4,1.4,8,3.4,11.8,6.2l-6.3,8.8
		c-5.9-4.4-11.9-6.7-17.9-6.7c-5.4,0-9.5,1.1-12.5,3.2c-3,2.2-4.5,5.2-4.5,9.2v0.1c0,3,0.9,5.2,2.6,6.8c1.7,1.5,4,2.7,6.8,3.5
		s5.8,1.5,9,2.1c2.9,0.6,5.8,1.3,8.6,2.1c2.9,0.8,5.5,2,7.9,3.5c2.4,1.5,4.2,3.7,5.7,6.4c1.4,2.7,2.1,6.2,2.1,10.5v0.1
		c0,7.3-2.5,13-7.6,17C930.4,218.9,923.3,220.9,914.2,220.9z"/>
</g>
</svg>
